solid exported
	facet normal -0.25734444158454267 0.9604224196115209 0.10659556413421618
		outer loop
			vertex 0 1 0
			vertex -0.5 0.8660253882408142 0
			vertex -0.3535533845424652 0.8660253882408142 0.3535533845424652
		endloop
	endfacet
	facet normal -0.10659556413421618 0.9604224196115209 0.2573444415845426
		outer loop
			vertex 0 1 0
			vertex -0.3535533845424652 0.8660253882408142 0.3535533845424652
			vertex -3.0616171314629196e-17 0.8660253882408142 0.5
		endloop
	endfacet
	facet normal 0.10659556413421617 0.9604224196115209 0.25734444158454267
		outer loop
			vertex 0 1 0
			vertex -3.0616171314629196e-17 0.8660253882408142 0.5
			vertex 0.3535533845424652 0.8660253882408142 0.3535533845424652
		endloop
	endfacet
	facet normal 0.2573444415845426 0.9604224196115209 0.10659556413421618
		outer loop
			vertex 0 1 0
			vertex 0.3535533845424652 0.8660253882408142 0.3535533845424652
			vertex 0.5 0.8660253882408142 6.123234262925839e-17
		endloop
	endfacet
	facet normal 0.25734444158454267 0.9604224196115209 -0.10659556413421617
		outer loop
			vertex 0 1 0
			vertex 0.5 0.8660253882408142 6.123234262925839e-17
			vertex 0.3535533845424652 0.8660253882408142 -0.3535533845424652
		endloop
	endfacet
	facet normal 0.10659556413421621 0.9604224196115209 -0.25734444158454267
		outer loop
			vertex 0 1 0
			vertex 0.3535533845424652 0.8660253882408142 -0.3535533845424652
			vertex 9.184850732644269e-17 0.8660253882408142 -0.5
		endloop
	endfacet
	facet normal -0.10659556413421614 0.9604224196115209 -0.25734444158454267
		outer loop
			vertex 0 1 0
			vertex 9.184850732644269e-17 0.8660253882408142 -0.5
			vertex -0.3535533845424652 0.8660253882408142 -0.3535533845424652
		endloop
	endfacet
	facet normal -0.25734444158454267 0.9604224196115209 -0.10659556413421621
		outer loop
			vertex 0 1 0
			vertex -0.3535533845424652 0.8660253882408142 -0.3535533845424652
			vertex -0.5 0.8660253882408142 -1.2246468525851679e-16
		endloop
	endfacet
	facet normal -0.678598288582369 0.6785984033079782 0.28108463095826225
		outer loop
			vertex -0.3535533845424652 0.8660253882408142 0.3535533845424652
			vertex -0.5 0.8660253882408142 0
			vertex -0.6123724579811096 0.5 0.6123724579811096
		endloop
	endfacet
	facet normal -0.6785983544929652 0.6785983544929652 0.2810845896858807
		outer loop
			vertex -0.5 0.8660253882408142 0
			vertex -0.8660253882408142 0.5 0
			vertex -0.6123724579811096 0.5 0.6123724579811096
		endloop
	endfacet
	facet normal -0.28108465284143663 0.6785983414130221 0.6785983414130221
		outer loop
			vertex -3.0616171314629196e-17 0.8660253882408142 0.5
			vertex -0.3535533845424652 0.8660253882408142 0.3535533845424652
			vertex -5.302876236065149e-17 0.5 0.8660253882408142
		endloop
	endfacet
	facet normal -0.281084577051627 0.6785983902280341 0.6785983239911729
		outer loop
			vertex -0.3535533845424652 0.8660253882408142 0.3535533845424652
			vertex -0.6123724579811096 0.5 0.6123724579811096
			vertex -5.302876236065149e-17 0.5 0.8660253882408142
		endloop
	endfacet
	facet normal 0.28108463095826225 0.6785984033079782 0.6785982885823691
		outer loop
			vertex 0.3535533845424652 0.8660253882408142 0.3535533845424652
			vertex -3.0616171314629196e-17 0.8660253882408142 0.5
			vertex 0.6123724579811096 0.5 0.6123724579811096
		endloop
	endfacet
	facet normal 0.2810845896858807 0.6785983544929652 0.6785983544929652
		outer loop
			vertex -3.0616171314629196e-17 0.8660253882408142 0.5
			vertex -5.302876236065149e-17 0.5 0.8660253882408142
			vertex 0.6123724579811096 0.5 0.6123724579811096
		endloop
	endfacet
	facet normal 0.678598341413022 0.6785983414130222 0.2810846528414366
		outer loop
			vertex 0.5 0.8660253882408142 6.123234262925839e-17
			vertex 0.3535533845424652 0.8660253882408142 0.3535533845424652
			vertex 0.8660253882408142 0.5 1.0605752472130298e-16
		endloop
	endfacet
	facet normal 0.6785983239911728 0.678598390228034 0.281084577051627
		outer loop
			vertex 0.3535533845424652 0.8660253882408142 0.3535533845424652
			vertex 0.6123724579811096 0.5 0.6123724579811096
			vertex 0.8660253882408142 0.5 1.0605752472130298e-16
		endloop
	endfacet
	facet normal 0.678598288582369 0.6785984033079782 -0.2810846309582622
		outer loop
			vertex 0.3535533845424652 0.8660253882408142 -0.3535533845424652
			vertex 0.5 0.8660253882408142 6.123234262925839e-17
			vertex 0.6123724579811096 0.5 -0.6123724579811096
		endloop
	endfacet
	facet normal 0.6785983544929652 0.6785983544929652 -0.2810845896858807
		outer loop
			vertex 0.5 0.8660253882408142 6.123234262925839e-17
			vertex 0.8660253882408142 0.5 1.0605752472130298e-16
			vertex 0.6123724579811096 0.5 -0.6123724579811096
		endloop
	endfacet
	facet normal 0.28108465284143663 0.6785983414130221 -0.6785983414130221
		outer loop
			vertex 9.184850732644269e-17 0.8660253882408142 -0.5
			vertex 0.3535533845424652 0.8660253882408142 -0.3535533845424652
			vertex 1.5908628708195447e-16 0.5 -0.8660253882408142
		endloop
	endfacet
	facet normal 0.28108457705162704 0.6785983902280341 -0.6785983239911729
		outer loop
			vertex 0.3535533845424652 0.8660253882408142 -0.3535533845424652
			vertex 0.6123724579811096 0.5 -0.6123724579811096
			vertex 1.5908628708195447e-16 0.5 -0.8660253882408142
		endloop
	endfacet
	facet normal -0.2810846309582622 0.6785984033079782 -0.678598288582369
		outer loop
			vertex -0.3535533845424652 0.8660253882408142 -0.3535533845424652
			vertex 9.184850732644269e-17 0.8660253882408142 -0.5
			vertex -0.6123724579811096 0.5 -0.6123724579811096
		endloop
	endfacet
	facet normal -0.2810845896858807 0.6785983544929652 -0.6785983544929652
		outer loop
			vertex 9.184850732644269e-17 0.8660253882408142 -0.5
			vertex 1.5908628708195447e-16 0.5 -0.8660253882408142
			vertex -0.6123724579811096 0.5 -0.6123724579811096
		endloop
	endfacet
	facet normal -0.6785983414130221 0.6785983414130221 -0.28108465284143663
		outer loop
			vertex -0.5 0.8660253882408142 -1.2246468525851679e-16
			vertex -0.3535533845424652 0.8660253882408142 -0.3535533845424652
			vertex -0.8660253882408142 0.5 -2.1211504944260596e-16
		endloop
	endfacet
	facet normal -0.6785983239911728 0.6785983902280341 -0.28108457705162704
		outer loop
			vertex -0.3535533845424652 0.8660253882408142 -0.3535533845424652
			vertex -0.6123724579811096 0.5 -0.6123724579811096
			vertex -0.8660253882408142 0.5 -2.1211504944260596e-16
		endloop
	endfacet
	facet normal -0.8968088623149036 0.24029911014003327 0.37147032470892816
		outer loop
			vertex -0.6123724579811096 0.5 0.6123724579811096
			vertex -0.8660253882408142 0.5 0
			vertex -0.7071067690849304 6.123234262925839e-17 0.7071067690849304
		endloop
	endfacet
	facet normal -0.8968088045054851 0.24029922281168387 0.3714703913874474
		outer loop
			vertex -0.8660253882408142 0.5 0
			vertex -1 6.123234262925839e-17 0
			vertex -0.7071067690849304 6.123234262925839e-17 0.7071067690849304
		endloop
	endfacet
	facet normal -0.3714703132687065 0.24029923090114474 0.8968088346957603
		outer loop
			vertex -5.302876236065149e-17 0.5 0.8660253882408142
			vertex -0.6123724579811096 0.5 0.6123724579811096
			vertex -6.123234262925839e-17 6.123234262925839e-17 1
		endloop
	endfacet
	facet normal -0.3714704012949723 0.24029911822949174 0.8968088284243644
		outer loop
			vertex -0.6123724579811096 0.5 0.6123724579811096
			vertex -0.7071067690849304 6.123234262925839e-17 0.7071067690849304
			vertex -6.123234262925839e-17 6.123234262925839e-17 1
		endloop
	endfacet
	facet normal 0.37147032470892816 0.24029911014003327 0.8968088623149036
		outer loop
			vertex 0.6123724579811096 0.5 0.6123724579811096
			vertex -5.302876236065149e-17 0.5 0.8660253882408142
			vertex 0.7071067690849304 6.123234262925839e-17 0.7071067690849304
		endloop
	endfacet
	facet normal 0.3714703913874474 0.2402992228116839 0.8968088045054853
		outer loop
			vertex -5.302876236065149e-17 0.5 0.8660253882408142
			vertex -6.123234262925839e-17 6.123234262925839e-17 1
			vertex 0.7071067690849304 6.123234262925839e-17 0.7071067690849304
		endloop
	endfacet
	facet normal 0.8968088346957602 0.2402992309011446 0.37147031326870655
		outer loop
			vertex 0.8660253882408142 0.5 1.0605752472130298e-16
			vertex 0.6123724579811096 0.5 0.6123724579811096
			vertex 1 6.123234262925839e-17 1.2246468525851679e-16
		endloop
	endfacet
	facet normal 0.8968088284243644 0.24029911822949174 0.3714704012949723
		outer loop
			vertex 0.6123724579811096 0.5 0.6123724579811096
			vertex 0.7071067690849304 6.123234262925839e-17 0.7071067690849304
			vertex 1 6.123234262925839e-17 1.2246468525851679e-16
		endloop
	endfacet
	facet normal 0.8968088623149036 0.24029911014003327 -0.3714703247089281
		outer loop
			vertex 0.6123724579811096 0.5 -0.6123724579811096
			vertex 0.8660253882408142 0.5 1.0605752472130298e-16
			vertex 0.7071067690849304 6.123234262925839e-17 -0.7071067690849304
		endloop
	endfacet
	facet normal 0.8968088045054853 0.2402992228116839 -0.3714703913874474
		outer loop
			vertex 0.8660253882408142 0.5 1.0605752472130298e-16
			vertex 1 6.123234262925839e-17 1.2246468525851679e-16
			vertex 0.7071067690849304 6.123234262925839e-17 -0.7071067690849304
		endloop
	endfacet
	facet normal 0.37147031326870655 0.2402992309011447 -0.8968088346957602
		outer loop
			vertex 1.5908628708195447e-16 0.5 -0.8660253882408142
			vertex 0.6123724579811096 0.5 -0.6123724579811096
			vertex 1.8369701465288538e-16 6.123234262925839e-17 -1
		endloop
	endfacet
	facet normal 0.37147040129497233 0.24029911822949176 -0.8968088284243645
		outer loop
			vertex 0.6123724579811096 0.5 -0.6123724579811096
			vertex 0.7071067690849304 6.123234262925839e-17 -0.7071067690849304
			vertex 1.8369701465288538e-16 6.123234262925839e-17 -1
		endloop
	endfacet
	facet normal -0.3714703247089281 0.24029911014003327 -0.8968088623149036
		outer loop
			vertex -0.6123724579811096 0.5 -0.6123724579811096
			vertex 1.5908628708195447e-16 0.5 -0.8660253882408142
			vertex -0.7071067690849304 6.123234262925839e-17 -0.7071067690849304
		endloop
	endfacet
	facet normal -0.37147039138744736 0.24029922281168387 -0.8968088045054853
		outer loop
			vertex 1.5908628708195447e-16 0.5 -0.8660253882408142
			vertex 1.8369701465288538e-16 6.123234262925839e-17 -1
			vertex -0.7071067690849304 6.123234262925839e-17 -0.7071067690849304
		endloop
	endfacet
	facet normal -0.8968088346957602 0.24029923090114466 -0.3714703132687066
		outer loop
			vertex -0.8660253882408142 0.5 -2.1211504944260596e-16
			vertex -0.6123724579811096 0.5 -0.6123724579811096
			vertex -1 6.123234262925839e-17 -2.4492937051703357e-16
		endloop
	endfacet
	facet normal -0.8968088284243645 0.24029911822949176 -0.37147040129497233
		outer loop
			vertex -0.6123724579811096 0.5 -0.6123724579811096
			vertex -0.7071067690849304 6.123234262925839e-17 -0.7071067690849304
			vertex -1 6.123234262925839e-17 -2.4492937051703357e-16
		endloop
	endfacet
	facet normal -0.8968088284243646 -0.2402991182294917 0.3714704012949723
		outer loop
			vertex -0.7071067690849304 6.123234262925839e-17 0.7071067690849304
			vertex -1 6.123234262925839e-17 0
			vertex -0.6123724579811096 -0.5 0.6123724579811096
		endloop
	endfacet
	facet normal -0.8968088346957602 -0.24029923090114458 0.37147031326870655
		outer loop
			vertex -1 6.123234262925839e-17 0
			vertex -0.8660253882408142 -0.5 0
			vertex -0.6123724579811096 -0.5 0.6123724579811096
		endloop
	endfacet
	facet normal -0.37147039138744753 -0.24029922281168384 0.8968088045054851
		outer loop
			vertex -6.123234262925839e-17 6.123234262925839e-17 1
			vertex -0.7071067690849304 6.123234262925839e-17 0.7071067690849304
			vertex -5.302876236065149e-17 -0.5 0.8660253882408142
		endloop
	endfacet
	facet normal -0.3714703247089282 -0.24029911014003322 0.8968088623149038
		outer loop
			vertex -0.7071067690849304 6.123234262925839e-17 0.7071067690849304
			vertex -0.6123724579811096 -0.5 0.6123724579811096
			vertex -5.302876236065149e-17 -0.5 0.8660253882408142
		endloop
	endfacet
	facet normal 0.3714704012949722 -0.24029911822949174 0.8968088284243646
		outer loop
			vertex 0.7071067690849304 6.123234262925839e-17 0.7071067690849304
			vertex -6.123234262925839e-17 6.123234262925839e-17 1
			vertex 0.6123724579811096 -0.5 0.6123724579811096
		endloop
	endfacet
	facet normal 0.37147031326870655 -0.24029923090114458 0.8968088346957602
		outer loop
			vertex -6.123234262925839e-17 6.123234262925839e-17 1
			vertex -5.302876236065149e-17 -0.5 0.8660253882408142
			vertex 0.6123724579811096 -0.5 0.6123724579811096
		endloop
	endfacet
	facet normal 0.8968088045054853 -0.24029922281168384 0.3714703913874476
		outer loop
			vertex 1 6.123234262925839e-17 1.2246468525851679e-16
			vertex 0.7071067690849304 6.123234262925839e-17 0.7071067690849304
			vertex 0.8660253882408142 -0.5 1.0605752472130298e-16
		endloop
	endfacet
	facet normal 0.8968088623149036 -0.24029911014003316 0.3714703247089282
		outer loop
			vertex 0.7071067690849304 6.123234262925839e-17 0.7071067690849304
			vertex 0.6123724579811096 -0.5 0.6123724579811096
			vertex 0.8660253882408142 -0.5 1.0605752472130298e-16
		endloop
	endfacet
	facet normal 0.8968088284243646 -0.24029911822949174 -0.3714704012949722
		outer loop
			vertex 0.7071067690849304 6.123234262925839e-17 -0.7071067690849304
			vertex 1 6.123234262925839e-17 1.2246468525851679e-16
			vertex 0.6123724579811096 -0.5 -0.6123724579811096
		endloop
	endfacet
	facet normal 0.8968088346957603 -0.24029923090114458 -0.3714703132687065
		outer loop
			vertex 1 6.123234262925839e-17 1.2246468525851679e-16
			vertex 0.8660253882408142 -0.5 1.0605752472130298e-16
			vertex 0.6123724579811096 -0.5 -0.6123724579811096
		endloop
	endfacet
	facet normal 0.3714703913874476 -0.2402992228116839 -0.8968088045054851
		outer loop
			vertex 1.8369701465288538e-16 6.123234262925839e-17 -1
			vertex 0.7071067690849304 6.123234262925839e-17 -0.7071067690849304
			vertex 1.5908628708195447e-16 -0.5 -0.8660253882408142
		endloop
	endfacet
	facet normal 0.37147032470892827 -0.2402991101400332 -0.8968088623149036
		outer loop
			vertex 0.7071067690849304 6.123234262925839e-17 -0.7071067690849304
			vertex 0.6123724579811096 -0.5 -0.6123724579811096
			vertex 1.5908628708195447e-16 -0.5 -0.8660253882408142
		endloop
	endfacet
	facet normal -0.37147040129497216 -0.24029911822949174 -0.8968088284243645
		outer loop
			vertex -0.7071067690849304 6.123234262925839e-17 -0.7071067690849304
			vertex 1.8369701465288538e-16 6.123234262925839e-17 -1
			vertex -0.6123724579811096 -0.5 -0.6123724579811096
		endloop
	endfacet
	facet normal -0.3714703132687065 -0.24029923090114458 -0.8968088346957603
		outer loop
			vertex 1.8369701465288538e-16 6.123234262925839e-17 -1
			vertex 1.5908628708195447e-16 -0.5 -0.8660253882408142
			vertex -0.6123724579811096 -0.5 -0.6123724579811096
		endloop
	endfacet
	facet normal -0.8968088045054851 -0.2402992228116838 -0.3714703913874476
		outer loop
			vertex -1 6.123234262925839e-17 -2.4492937051703357e-16
			vertex -0.7071067690849304 6.123234262925839e-17 -0.7071067690849304
			vertex -0.8660253882408142 -0.5 -2.1211504944260596e-16
		endloop
	endfacet
	facet normal -0.8968088623149035 -0.24029911014003313 -0.37147032470892827
		outer loop
			vertex -0.7071067690849304 6.123234262925839e-17 -0.7071067690849304
			vertex -0.6123724579811096 -0.5 -0.6123724579811096
			vertex -0.8660253882408142 -0.5 -2.1211504944260596e-16
		endloop
	endfacet
	facet normal -0.6785983239911728 -0.678598390228034 0.2810845770516269
		outer loop
			vertex -0.6123724579811096 -0.5 0.6123724579811096
			vertex -0.8660253882408142 -0.5 0
			vertex -0.3535533845424652 -0.8660253882408142 0.3535533845424652
		endloop
	endfacet
	facet normal -0.6785983414130222 -0.6785983414130222 0.2810846528414366
		outer loop
			vertex -0.8660253882408142 -0.5 0
			vertex -0.5 -0.8660253882408142 0
			vertex -0.3535533845424652 -0.8660253882408142 0.3535533845424652
		endloop
	endfacet
	facet normal -0.2810845896858807 -0.6785983544929652 0.6785983544929652
		outer loop
			vertex -5.302876236065149e-17 -0.5 0.8660253882408142
			vertex -0.6123724579811096 -0.5 0.6123724579811096
			vertex -3.0616171314629196e-17 -0.8660253882408142 0.5
		endloop
	endfacet
	facet normal -0.2810846309582623 -0.6785984033079783 0.6785982885823689
		outer loop
			vertex -0.6123724579811096 -0.5 0.6123724579811096
			vertex -0.3535533845424652 -0.8660253882408142 0.3535533845424652
			vertex -3.0616171314629196e-17 -0.8660253882408142 0.5
		endloop
	endfacet
	facet normal 0.281084577051627 -0.6785983902280341 0.6785983239911729
		outer loop
			vertex 0.6123724579811096 -0.5 0.6123724579811096
			vertex -5.302876236065149e-17 -0.5 0.8660253882408142
			vertex 0.3535533845424652 -0.8660253882408142 0.3535533845424652
		endloop
	endfacet
	facet normal 0.2810846528414366 -0.6785983414130222 0.6785983414130222
		outer loop
			vertex -5.302876236065149e-17 -0.5 0.8660253882408142
			vertex -3.0616171314629196e-17 -0.8660253882408142 0.5
			vertex 0.3535533845424652 -0.8660253882408142 0.3535533845424652
		endloop
	endfacet
	facet normal 0.6785983544929652 -0.6785983544929651 0.2810845896858807
		outer loop
			vertex 0.8660253882408142 -0.5 1.0605752472130298e-16
			vertex 0.6123724579811096 -0.5 0.6123724579811096
			vertex 0.5 -0.8660253882408142 6.123234262925839e-17
		endloop
	endfacet
	facet normal 0.6785982885823689 -0.6785984033079783 0.2810846309582623
		outer loop
			vertex 0.6123724579811096 -0.5 0.6123724579811096
			vertex 0.3535533845424652 -0.8660253882408142 0.3535533845424652
			vertex 0.5 -0.8660253882408142 6.123234262925839e-17
		endloop
	endfacet
	facet normal 0.6785983239911729 -0.6785983902280341 -0.2810845770516269
		outer loop
			vertex 0.6123724579811096 -0.5 -0.6123724579811096
			vertex 0.8660253882408142 -0.5 1.0605752472130298e-16
			vertex 0.3535533845424652 -0.8660253882408142 -0.3535533845424652
		endloop
	endfacet
	facet normal 0.6785983414130222 -0.6785983414130222 -0.2810846528414366
		outer loop
			vertex 0.8660253882408142 -0.5 1.0605752472130298e-16
			vertex 0.5 -0.8660253882408142 6.123234262925839e-17
			vertex 0.3535533845424652 -0.8660253882408142 -0.3535533845424652
		endloop
	endfacet
	facet normal 0.2810845896858807 -0.6785983544929651 -0.6785983544929652
		outer loop
			vertex 1.5908628708195447e-16 -0.5 -0.8660253882408142
			vertex 0.6123724579811096 -0.5 -0.6123724579811096
			vertex 9.184850732644269e-17 -0.8660253882408142 -0.5
		endloop
	endfacet
	facet normal 0.28108463095826236 -0.6785984033079782 -0.678598288582369
		outer loop
			vertex 0.6123724579811096 -0.5 -0.6123724579811096
			vertex 0.3535533845424652 -0.8660253882408142 -0.3535533845424652
			vertex 9.184850732644269e-17 -0.8660253882408142 -0.5
		endloop
	endfacet
	facet normal -0.2810845770516269 -0.678598390228034 -0.6785983239911729
		outer loop
			vertex -0.6123724579811096 -0.5 -0.6123724579811096
			vertex 1.5908628708195447e-16 -0.5 -0.8660253882408142
			vertex -0.3535533845424652 -0.8660253882408142 -0.3535533845424652
		endloop
	endfacet
	facet normal -0.2810846528414366 -0.6785983414130222 -0.6785983414130222
		outer loop
			vertex 1.5908628708195447e-16 -0.5 -0.8660253882408142
			vertex 9.184850732644269e-17 -0.8660253882408142 -0.5
			vertex -0.3535533845424652 -0.8660253882408142 -0.3535533845424652
		endloop
	endfacet
	facet normal -0.6785983544929651 -0.6785983544929652 -0.28108458968588074
		outer loop
			vertex -0.8660253882408142 -0.5 -2.1211504944260596e-16
			vertex -0.6123724579811096 -0.5 -0.6123724579811096
			vertex -0.5 -0.8660253882408142 -1.2246468525851679e-16
		endloop
	endfacet
	facet normal -0.678598288582369 -0.6785984033079782 -0.28108463095826236
		outer loop
			vertex -0.6123724579811096 -0.5 -0.6123724579811096
			vertex -0.3535533845424652 -0.8660253882408142 -0.3535533845424652
			vertex -0.5 -0.8660253882408142 -1.2246468525851679e-16
		endloop
	endfacet
	facet normal -0.25734444158454267 -0.9604224196115208 0.10659556413421618
		outer loop
			vertex -0.3535533845424652 -0.8660253882408142 0.3535533845424652
			vertex -0.5 -0.8660253882408142 0
			vertex -8.659560603426554e-17 -1 8.659560603426554e-17
		endloop
	endfacet
	facet normal -0.10659556413421621 -0.9604224196115209 0.2573444415845427
		outer loop
			vertex -3.0616171314629196e-17 -0.8660253882408142 0.5
			vertex -0.3535533845424652 -0.8660253882408142 0.3535533845424652
			vertex -7.498798786105971e-33 -1 1.2246468525851679e-16
		endloop
	endfacet
	facet normal 0.10659556413421618 -0.9604224196115208 0.2573444415845427
		outer loop
			vertex 0.3535533845424652 -0.8660253882408142 0.3535533845424652
			vertex -3.0616171314629196e-17 -0.8660253882408142 0.5
			vertex 8.659560603426554e-17 -1 8.659560603426554e-17
		endloop
	endfacet
	facet normal 0.2573444415845427 -0.9604224196115209 0.10659556413421621
		outer loop
			vertex 0.5 -0.8660253882408142 6.123234262925839e-17
			vertex 0.3535533845424652 -0.8660253882408142 0.3535533845424652
			vertex 1.2246468525851679e-16 -1 1.4997597572211942e-32
		endloop
	endfacet
	facet normal 0.2573444415845427 -0.9604224196115208 -0.10659556413421618
		outer loop
			vertex 0.3535533845424652 -0.8660253882408142 -0.3535533845424652
			vertex 0.5 -0.8660253882408142 6.123234262925839e-17
			vertex 8.659560603426554e-17 -1 -8.659560603426554e-17
		endloop
	endfacet
	facet normal 0.10659556413421621 -0.9604224196115208 -0.25734444158454267
		outer loop
			vertex 9.184850732644269e-17 -0.8660253882408142 -0.5
			vertex 0.3535533845424652 -0.8660253882408142 -0.3535533845424652
			vertex 2.2496396358317913e-32 -1 -1.2246468525851679e-16
		endloop
	endfacet
	facet normal -0.10659556413421618 -0.9604224196115209 -0.2573444415845427
		outer loop
			vertex -0.3535533845424652 -0.8660253882408142 -0.3535533845424652
			vertex 9.184850732644269e-17 -0.8660253882408142 -0.5
			vertex -8.659560603426554e-17 -1 -8.659560603426554e-17
		endloop
	endfacet
	facet normal -0.25734444158454267 -0.9604224196115208 -0.10659556413421621
		outer loop
			vertex -0.5 -0.8660253882408142 -1.2246468525851679e-16
			vertex -0.3535533845424652 -0.8660253882408142 -0.3535533845424652
			vertex -1.2246468525851679e-16 -1 -2.9995195144423884e-32
		endloop
	endfacet
endsolid exported
